{
    "asset" : {
        "generator" : "Khronos glTF Blender I/O v3.4.50",
        "version" : "2.0"
    },
    "extensionsUsed" : [
        "KHR_materials_specular",
        "KHR_materials_ior"
    ],
    "scene" : 0,
    "scenes" : [
        {
            "name" : "Scene",
            "nodes" : [
                0,
                1
            ]
        }
    ],
    "nodes" : [
        {
            "mesh" : 0,
            "name" : "head_bottom"
        },
        {
            "mesh" : 1,
            "name" : "head_top"
        }
    ],
    "materials" : [
        {
            "doubleSided" : true,
            "extensions" : {
                "KHR_materials_specular" : {
                    "specularColorFactor" : [
                        0,
                        0,
                        0
                    ]
                },
                "KHR_materials_ior" : {
                    "ior" : 1.4500000476837158
                }
            },
            "name" : "Material",
            "pbrMetallicRoughness" : {
                "baseColorTexture" : {
                    "index" : 0
                },
                "metallicFactor" : 0
            }
        }
    ],
    "meshes" : [
        {
            "name" : "Plane",
            "primitives" : [
                {
                    "attributes" : {
                        "POSITION" : 0,
                        "TEXCOORD_0" : 1,
                        "NORMAL" : 2
                    },
                    "indices" : 3,
                    "material" : 0
                }
            ]
        },
        {
            "name" : "Plane.001",
            "primitives" : [
                {
                    "attributes" : {
                        "POSITION" : 4,
                        "TEXCOORD_0" : 5,
                        "NORMAL" : 6
                    },
                    "indices" : 7,
                    "material" : 0
                }
            ]
        }
    ],
    "textures" : [
        {
            "sampler" : 0,
            "source" : 0
        }
    ],
    "images" : [
        {
            "bufferView" : 4,
            "mimeType" : "image/jpeg",
            "name" : "selfportraitdepth_color"
        }
    ],
    "accessors" : [
        {
            "bufferView" : 0,
            "componentType" : 5126,
            "count" : 41377,
            "max" : [
                0.30480003356933594,
                0.17993620038032532,
                0.30480003356933594
            ],
            "min" : [
                -0.30480003356933594,
                0,
                -0.07620000839233398
            ],
            "type" : "VEC3"
        },
        {
            "bufferView" : 1,
            "componentType" : 5126,
            "count" : 41377,
            "type" : "VEC2"
        },
        {
            "bufferView" : 2,
            "componentType" : 5126,
            "count" : 41377,
            "type" : "VEC3"
        },
        {
            "bufferView" : 3,
            "componentType" : 5123,
            "count" : 245760,
            "type" : "SCALAR"
        },
        {
            "bufferView" : 5,
            "componentType" : 5126,
            "count" : 24929,
            "max" : [
                0.3048000633716583,
                0.15268564224243164,
                -0.07620000839233398
            ],
            "min" : [
                -0.30480000376701355,
                0,
                -0.30480003356933594
            ],
            "type" : "VEC3"
        },
        {
            "bufferView" : 6,
            "componentType" : 5126,
            "count" : 24929,
            "type" : "VEC2"
        },
        {
            "bufferView" : 7,
            "componentType" : 5126,
            "count" : 24929,
            "type" : "VEC3"
        },
        {
            "bufferView" : 8,
            "componentType" : 5123,
            "count" : 147456,
            "type" : "SCALAR"
        }
    ],
    "bufferViews" : [
        {
            "buffer" : 0,
            "byteLength" : 496524,
            "byteOffset" : 0,
            "target" : 34962
        },
        {
            "buffer" : 0,
            "byteLength" : 331016,
            "byteOffset" : 496524,
            "target" : 34962
        },
        {
            "buffer" : 0,
            "byteLength" : 496524,
            "byteOffset" : 827540,
            "target" : 34962
        },
        {
            "buffer" : 0,
            "byteLength" : 491520,
            "byteOffset" : 1324064,
            "target" : 34963
        },
        {
            "buffer" : 0,
            "byteLength" : 30830,
            "byteOffset" : 1815584
        },
        {
            "buffer" : 0,
            "byteLength" : 299148,
            "byteOffset" : 1846416,
            "target" : 34962
        },
        {
            "buffer" : 0,
            "byteLength" : 199432,
            "byteOffset" : 2145564,
            "target" : 34962
        },
        {
            "buffer" : 0,
            "byteLength" : 299148,
            "byteOffset" : 2344996,
            "target" : 34962
        },
        {
            "buffer" : 0,
            "byteLength" : 294912,
            "byteOffset" : 2644144,
            "target" : 34963
        }
    ],
    "samplers" : [
        {
            "magFilter" : 9729,
            "minFilter" : 9987
        }
    ],
    "buffers" : [
        {
            "byteLength" : 2939056,
            "uri" : "data:application/octet-stream;base64,"
        }
    ]
}
