<?xml version="1.0" encoding="UTF-8" standalone="no"?>
<!-- Created with Inkscape (http://www.inkscape.org/) -->

<svg
   xmlns:dc="http://purl.org/dc/elements/1.1/"
   xmlns:cc="http://creativecommons.org/ns#"
   xmlns:rdf="http://www.w3.org/1999/02/22-rdf-syntax-ns#"
   xmlns:svg="http://www.w3.org/2000/svg"
   xmlns="http://www.w3.org/2000/svg"
   xmlns:sodipodi="http://sodipodi.sourceforge.net/DTD/sodipodi-0.dtd"
   xmlns:inkscape="http://www.inkscape.org/namespaces/inkscape"
   width="551.87134"
   height="219.25697"
   viewBox="0 0 551.87136 219.25696"
   id="svg2"
   version="1.1"
   inkscape:version="0.91 r13725"
   sodipodi:docname="tools.svg">
  <defs
     id="defs4" />
  <sodipodi:namedview
     id="base"
     pagecolor="#ffffff"
     bordercolor="#666666"
     borderopacity="1.0"
     inkscape:pageopacity="0.0"
     inkscape:pageshadow="2"
     inkscape:zoom="0.7"
     inkscape:cx="546.20689"
     inkscape:cy="8.6530062"
     inkscape:document-units="px"
     inkscape:current-layer="layer2"
     showgrid="false"
     inkscape:window-width="1366"
     inkscape:window-height="705"
     inkscape:window-x="-8"
     inkscape:window-y="-8"
     inkscape:window-maximized="1"
     units="px"
     fit-margin-top="0"
     fit-margin-left="0"
     fit-margin-right="0"
     fit-margin-bottom="0" />
  <metadata
     id="metadata7">
    <rdf:RDF>
      <cc:Work
         rdf:about="">
        <dc:format>image/svg+xml</dc:format>
        <dc:type
           rdf:resource="http://purl.org/dc/dcmitype/StillImage" />
        <dc:title></dc:title>
      </cc:Work>
    </rdf:RDF>
  </metadata>
  <g
     inkscape:groupmode="layer"
     id="layer2"
     inkscape:label="Layer 2"
     style="display:inline;opacity:1"
     transform="translate(33.228005,-459.39423)">
    <rect
       style="opacity:1;fill:#0000ff;fill-opacity:1;stroke:#000000;stroke-width:0.92816246;stroke-linecap:round;stroke-linejoin:round;stroke-miterlimit:4;stroke-dasharray:none;stroke-opacity:0.94117647"
       id="rect4206"
       width="180.68118"
       height="168.14452"
       x="289.08014"
       y="417.24896"
       ry="6.1925092"
       transform="matrix(0.98147107,0.19161039,-0.25555242,0.9667952,0,0)" />
    <g
       id="g4246"
       transform="matrix(0.96730604,-0.21840126,0.25413069,0.83130792,-282.64113,-20.014808)">
      <g
         id="g4250">
        <path
           style="fill:#ffffff;fill-opacity:1;fill-rule:evenodd;stroke:#000000;stroke-width:1px;stroke-linecap:butt;stroke-linejoin:miter;stroke-opacity:1"
           d="m 319.71328,864.97891 0.50508,-117.68277 c 0,0 -18.18275,-4.04061 -19.1929,-26.26397 -1.01015,-22.22336 10.10152,-29.29442 19.1929,-32.32488 0,0 -6.21742,23.6932 0.50507,30.30458 6.72249,6.61138 20.07349,6.19048 26.26397,0 7.02381,-7.02381 0,-29.79951 0,-29.79951 17.17259,2.02031 19.9001,17.68146 20.20305,30.80966 0.46623,20.20398 -16.16244,26.76904 -16.16244,26.76904 l -1.51523,118.18785 c 0,0 0.92439,14.14214 -14.89975,13.63706 -15.82414,-0.50508 -14.89975,-13.63706 -14.89975,-13.63706 z"
           id="path4242"
           inkscape:connector-curvature="0"
           sodipodi:nodetypes="ccsczscscczc" />
        <ellipse
           style="opacity:1;fill:#0000ff;fill-opacity:1;stroke:#000000;stroke-width:1;stroke-linecap:round;stroke-linejoin:round;stroke-miterlimit:4;stroke-dasharray:none;stroke-opacity:0.94117647"
           id="path4244"
           cx="334.86557"
           cy="863.71619"
           rx="6.0609155"
           ry="6.3134532" />
      </g>
    </g>
  </g>
  <g
     inkscape:groupmode="layer"
     id="layer4"
     inkscape:label="SawCard"
     transform="translate(33.228005,-459.39423)">
    <rect
       style="opacity:1;fill:#ff0000;fill-opacity:1;stroke:#000000;stroke-width:0.92992544;stroke-linecap:round;stroke-linejoin:round;stroke-miterlimit:4;stroke-dasharray:none;stroke-opacity:0.94117647"
       id="rect4204"
       width="195.01404"
       height="172.93074"
       x="-265.32959"
       y="484.03473"
       ry="6.3031216"
       transform="matrix(0.93944248,-0.34270661,0.44284693,0.89659723,0,0)" />
    <g
       style="display:inline"
       id="g4182"
       transform="matrix(1.0001317,0,0,0.85951845,-244.31289,143.47114)">
      <path
         inkscape:connector-curvature="0"
         id="path4140"
         d="m 336.88587,425.05747 35.35534,-3.03045 -4.54568,10.10152 30.80965,11.11168 -8.08122,6.06091 20.70813,16.16245 -8.5863,2.0203 15.15229,26.76904 -9.09138,0.50508 4.04061,32.32488 -9.09137,-5.55584 -5.05076,30.30458 -8.5863,-8.5863 -17.67767,29.29443 -5.05076,-11.11168 -27.27412,16.16244 -1.01015,-11.11168 -30.30458,5.05076 5.05077,-9.59645 -29.7995,-6.06091 8.08122,-7.07107 -25.75889,-15.15229 10.10152,-4.54568 -19.1929,-27.7792 11.61676,-0.50508 -7.07107,-32.32488 9.59645,3.53554 3.03046,-30.30458 12.12183,7.57614 10.10152,-27.27411 7.07107,10.6066 32.32488,-19.1929 z"
         style="fill:#ffffff;fill-opacity:1;fill-rule:evenodd;stroke:#000000;stroke-width:1px;stroke-linecap:butt;stroke-linejoin:miter;stroke-opacity:1" />
      <circle
         r="15.134574"
         cy="495.51562"
         cx="337.64349"
         id="path4178"
         style="opacity:1;fill:#ff0000;fill-opacity:1;stroke:#000000;stroke-width:1;stroke-linecap:round;stroke-linejoin:round;stroke-miterlimit:4;stroke-dasharray:none;stroke-opacity:0.94117647" />
      <ellipse
         ry="70.710678"
         rx="69.953064"
         cy="496.27322"
         cx="338.65366"
         id="path4138"
         style="opacity:1;fill:none;fill-opacity:1;stroke:#000000;stroke-width:1;stroke-linecap:round;stroke-linejoin:round;stroke-miterlimit:4;stroke-dasharray:none;stroke-opacity:0.94117647" />
    </g>
  </g>
  <g
     inkscape:groupmode="layer"
     id="layer3"
     inkscape:label="ComputerCard"
     style="display:inline"
     transform="translate(33.228005,-459.39423)">
    <rect
       style="opacity:1;fill:#ffff00;fill-opacity:1;stroke:#000000;stroke-width:0.92995834;stroke-linecap:round;stroke-linejoin:round;stroke-miterlimit:4;stroke-dasharray:none;stroke-opacity:0.94117647"
       id="rect4206-1"
       width="178.1312"
       height="171.21217"
       x="525.88843"
       y="314.81564"
       ry="6.3054862"
       transform="matrix(0.9384883,0.34531105,-0.4459093,0.89507815,0,0)" />
    <g
       id="g4196"
       transform="matrix(0.77099904,0,0,0.59716554,137.729,119.08259)"
       style="fill:#ffffff;fill-opacity:1">
      <rect
         ry="7.1428571"
         y="658.07648"
         x="252.85715"
         height="122.85717"
         width="170"
         id="rect4187"
         style="opacity:1;fill:#ffffff;fill-opacity:1;stroke:#000000;stroke-width:2;stroke-linecap:round;stroke-linejoin:round;stroke-miterlimit:4;stroke-dasharray:none;stroke-opacity:0.94117647" />
      <path
         inkscape:connector-curvature="0"
         id="rect4189"
         d="m 316.05113,781.09715 43.19364,0 0,26.20923 -43.19364,0 z"
         style="opacity:1;fill:#ffffff;fill-opacity:1;stroke:#000000;stroke-width:0.66351336;stroke-linecap:round;stroke-linejoin:round;stroke-miterlimit:4;stroke-dasharray:none;stroke-opacity:0.94117647" />
      <path
         sodipodi:nodetypes="ccccc"
         inkscape:connector-curvature="0"
         id="rect4192"
         d="m 271.44682,807.06344 133.78244,0 c 7.84834,0.84255 32.56777,31.01372 14.65976,31.69241 l -167.01123,0 c -19.50939,-3.55448 12.58727,-30.70583 18.56903,-31.69241 z"
         style="opacity:1;fill:#ffffff;fill-opacity:1;stroke:#000000;stroke-width:0.97311622;stroke-linecap:round;stroke-linejoin:round;stroke-miterlimit:4;stroke-dasharray:none;stroke-opacity:0.94117647" />
    </g>
    <rect
       style="display:inline;opacity:1;fill:#ffff00;fill-opacity:1;stroke:#000000;stroke-width:0.92716324;stroke-linecap:round;stroke-linejoin:round;stroke-miterlimit:4;stroke-dasharray:none;stroke-opacity:0.94117647"
       id="rect4223"
       width="112.14169"
       height="54.699421"
       x="343.0097"
       y="520.401"
       ry="0" />
  </g>
</svg>
